<svg width="27" height="24" viewBox="0 0 27 24" fill="none" xmlns="http://www.w3.org/2000/svg">
<path d="M13.38 17.9553C13.38 19.7341 14.03 21.3916 15.1269 22.6448C14.3956 23.1299 13.9081 23.4533 13.7863 23.4938C13.6644 23.5746 13.5019 23.615 13.38 23.615C13.2581 23.615 13.0956 23.5746 12.9738 23.4938C12.4456 23.2108 0.380005 15.8935 0.380005 8.25284C0.380005 4.25059 3.67063 0.976013 7.6925 0.976013C9.92688 0.976013 11.9988 1.98668 13.38 3.68461C14.7613 1.98668 16.8331 0.976013 19.0675 0.976013C23.0894 0.976013 26.38 4.25059 26.38 8.25284C26.38 9.62735 25.9738 11.0019 25.3238 12.336C24.0644 11.2849 22.4394 10.6785 20.6925 10.6785C16.6706 10.6785 13.38 13.953 13.38 17.9553ZM26.38 17.9553C26.38 21.0681 23.8206 23.615 20.6925 23.615C17.5644 23.615 15.005 21.0681 15.005 17.9553C15.005 14.8424 17.5644 12.2955 20.6925 12.2955C23.8206 12.2955 26.38 14.8424 26.38 17.9553ZM23.9425 17.9553C23.9425 17.5106 23.5769 17.1467 23.13 17.1467H21.505V15.5297C21.505 15.085 21.1394 14.7211 20.6925 14.7211C20.2456 14.7211 19.88 15.085 19.88 15.5297V17.1467H18.255C17.8081 17.1467 17.4425 17.5106 17.4425 17.9553C17.4425 18.4 17.8081 18.7638 18.255 18.7638H19.88V20.3809C19.88 20.8256 20.2456 21.1894 20.6925 21.1894C21.1394 21.1894 21.505 20.8256 21.505 20.3809V18.7638H23.13C23.5769 18.7638 23.9425 18.4 23.9425 17.9553Z" fill="white"/>
</svg>
