<svg width="30" height="30" viewBox="0 0 30 30" fill="none" xmlns="http://www.w3.org/2000/svg">
<path d="M20.4844 3.75C18.3516 3.75 16.3407 4.73098 15 6.32502C13.6592 4.73098 11.6484 3.75 9.51562 3.75C5.73738 3.75 2.8125 6.69264 2.8125 10.4938C2.8125 15.153 6.95613 18.8931 13.2326 24.6556L15 26.25L16.7674 24.6556C23.0438 18.8931 27.1875 15.1529 27.1875 10.4938C27.1875 6.69264 24.2626 3.75 20.4844 3.75ZM15.7521 23.0424L15.5049 23.2693L15 23.7248L14.4952 23.2694L14.2482 23.0427C11.2941 20.3309 8.74271 17.9888 7.05609 15.8946C5.41799 13.8606 4.6875 12.195 4.6875 10.4938C4.6875 9.1541 5.18098 7.91977 6.07705 7.0183C6.97014 6.11982 8.19129 5.625 9.51562 5.625C11.0469 5.625 12.5607 6.33791 13.565 7.53193L15 9.23795L16.4349 7.53193C17.4393 6.33791 18.953 5.625 20.4844 5.625C21.8088 5.625 23.0299 6.11982 23.923 7.01824C24.819 7.91977 25.3125 9.15404 25.3125 10.4938C25.3125 12.195 24.582 13.8606 22.944 15.8945C21.2575 17.9886 18.7062 20.3306 15.7521 23.0424Z" fill="#FF0037"/>
</svg>
