<svg width="27" height="24" viewBox="0 0 27 24" fill="none" xmlns="http://www.w3.org/2000/svg">
<path fill-rule="evenodd" clip-rule="evenodd" d="M22.6411 13.6992C22.131 13.5375 21.5879 13.4502 21.0245 13.4502C18.0642 13.4502 15.6649 15.8588 15.6649 18.8303C15.6649 19.3959 15.7518 19.941 15.9129 20.4531L13.5588 22.8161C13.2598 23.1163 12.7751 23.1163 12.476 22.8161L2.147 12.4477C-0.688698 9.60123 -0.693618 4.98882 2.13281 2.13705C4.98586 -0.712275 9.5827 -0.708148 12.4178 2.13778L13.0174 2.73969L13.6171 2.13778C16.4522 -0.708148 21.049 -0.712275 23.8886 2.12354C26.7285 4.98882 26.7236 9.60123 23.8879 12.4477L22.6411 13.6992ZM16.8134 18.8303C16.8134 16.4955 18.6985 14.6031 21.0245 14.6031C23.3504 14.6031 25.2357 16.4954 25.2357 18.8303C25.2357 21.1651 23.3506 23.0575 21.0245 23.0575C18.6986 23.0575 16.8134 21.1652 16.8134 18.8303ZM19.9223 18.1741C19.7729 18.0241 19.5318 18.023 19.3785 18.1768L18.8422 18.7152C18.6913 18.8667 18.6891 19.1101 18.8392 19.2608L20.1003 20.5267C20.3993 20.8268 20.8841 20.8268 21.1831 20.5267L23.5912 18.1093C23.7413 17.9587 23.7429 17.7161 23.5897 17.5623L23.0534 17.024C22.9025 16.8725 22.659 16.8712 22.5093 17.0215L20.6417 18.8962L19.9223 18.1741Z" fill="#F5023D"/>
</svg>
