<svg width="26" height="26" viewBox="0 0 26 26" fill="none" xmlns="http://www.w3.org/2000/svg">
<path d="M21.2017 24.3032C20.3354 24.9203 14.7764 21.0086 13.7118 21C12.6471 20.9915 7.02556 24.8132 6.16931 24.1823C5.31305 23.5513 7.32606 17.0707 7.00526 16.0584C6.68447 15.0461 1.30219 10.8958 1.63934 9.8888C1.97656 8.88178 8.77962 8.78824 9.64598 8.17115C10.5123 7.55413 12.8075 1.16739 13.8722 1.17591C14.9368 1.18451 17.1283 7.60735 17.9845 8.2383C18.8408 8.86918 25.6416 9.07226 25.9624 10.0845C26.2832 11.0968 20.8346 15.1599 20.4973 16.167C20.1602 17.174 22.0681 23.6861 21.2017 24.3032Z" fill="url(#paint0_linear_101_8)"/>
<defs>
<linearGradient id="paint0_linear_101_8" x1="1.62418" y1="12.7726" x2="25.976" y2="12.7726" gradientUnits="userSpaceOnUse">
<stop stop-color="#FCD635"/>
<stop offset="1" stop-color="#F7A928"/>
</linearGradient>
</defs>
</svg>
