<svg width="30" height="30" viewBox="0 0 30 30" fill="none" xmlns="http://www.w3.org/2000/svg">
<path d="M20.1726 7.30813C20.1726 7.5413 20.1568 7.77447 20.1278 8.00499C20.141 7.91225 20.1542 7.81686 20.1647 7.72413C20.1014 8.18517 19.98 8.63296 19.8031 9.0622C19.8375 8.97741 19.8744 8.89262 19.9087 8.80784C19.7319 9.22648 19.5049 9.61863 19.2278 9.97898L19.3941 9.76436C19.1196 10.1194 18.8002 10.44 18.4466 10.7156L18.6603 10.5487C18.3014 10.8242 17.9108 11.0547 17.4938 11.2323C17.5782 11.1978 17.6627 11.1607 17.7472 11.1263C17.3196 11.3038 16.8736 11.4257 16.4143 11.4893C16.5067 11.476 16.6017 11.4628 16.6941 11.4522C16.2322 11.5131 15.7677 11.5131 15.3058 11.4522C15.3982 11.4654 15.4932 11.4787 15.5856 11.4893C15.1264 11.4257 14.6803 11.3038 14.2528 11.1263C14.3372 11.1607 14.4217 11.1978 14.5061 11.2323C14.0891 11.0547 13.6985 10.8269 13.3396 10.5487L13.5534 10.7156C13.1997 10.44 12.8804 10.1194 12.6059 9.76436L12.7721 9.97898C12.4977 9.61863 12.268 9.22648 12.0912 8.80784C12.1255 8.89262 12.1625 8.97741 12.1968 9.0622C12.02 8.63296 11.8986 8.18517 11.8352 7.72413C11.8484 7.81686 11.8616 7.91225 11.8722 8.00499C11.8115 7.5413 11.8115 7.07496 11.8722 6.61127C11.859 6.70401 11.8458 6.79939 11.8352 6.89213C11.8986 6.43109 12.02 5.9833 12.1968 5.55405C12.1625 5.63884 12.1255 5.72363 12.0912 5.80842C12.268 5.38978 12.495 4.99763 12.7721 4.63727L12.6059 4.85189C12.8804 4.49684 13.1997 4.17623 13.5534 3.90067L13.3396 4.0676C13.6985 3.79203 14.0891 3.56151 14.5061 3.38398C14.4217 3.41843 14.3372 3.45552 14.2528 3.48997C14.6803 3.31244 15.1264 3.19056 15.5856 3.12697C15.4932 3.14022 15.3982 3.15346 15.3058 3.16406C15.7677 3.10312 16.2322 3.10312 16.6941 3.16406C16.6017 3.15081 16.5067 3.13757 16.4143 3.12697C16.8736 3.19056 17.3196 3.31244 17.7472 3.48997C17.6627 3.45552 17.5782 3.41843 17.4938 3.38398C17.9108 3.56151 18.3014 3.78938 18.6603 4.0676L18.4466 3.90067C18.8002 4.17623 19.1196 4.49684 19.3941 4.85189L19.2278 4.63727C19.5023 4.99763 19.7319 5.38978 19.9087 5.80842C19.8744 5.72363 19.8375 5.63884 19.8031 5.55405C19.98 5.9833 20.1014 6.43109 20.1647 6.89213C20.1515 6.79939 20.1383 6.70401 20.1278 6.61127C20.1568 6.84179 20.17 7.07496 20.1726 7.30813C20.1753 7.86191 20.6556 8.39449 21.2283 8.36799C21.7984 8.3415 22.2867 7.90165 22.2841 7.30813C22.2788 6.03894 21.8987 4.74061 21.1544 3.70724C20.9539 3.42903 20.7401 3.15611 20.5026 2.90969C20.2624 2.66063 19.9985 2.446 19.724 2.23668C19.2251 1.85513 18.6683 1.57427 18.0771 1.35699C15.6938 0.479958 12.8197 1.26161 11.2071 3.23295C10.9854 3.50322 10.7742 3.78408 10.5948 4.08614C10.4153 4.38556 10.2754 4.70351 10.1461 5.02677C9.90327 5.6256 9.77922 6.26151 9.72907 6.90538C9.63142 8.16662 9.95869 9.4835 10.6132 10.5646C11.244 11.6085 12.1968 12.5041 13.3106 13.0102C13.6378 13.1586 13.973 13.2964 14.3214 13.3944C14.6671 13.4898 15.0182 13.5428 15.3745 13.5852C16.0237 13.662 16.6862 13.609 17.3275 13.4792C19.7636 12.981 21.8037 10.8746 22.1811 8.40244C22.2365 8.04208 22.2788 7.68173 22.2788 7.31608C22.2814 6.7623 21.7905 6.22972 21.2231 6.25621C20.653 6.27476 20.1726 6.7146 20.1726 7.30813ZM23.6749 23.8764H10.1329C9.53377 23.8764 8.93466 23.8817 8.33554 23.8764C8.26956 23.8764 8.20358 23.8711 8.14024 23.8632C8.23261 23.8764 8.32762 23.8897 8.42 23.9003C8.31443 23.8844 8.21414 23.8552 8.11648 23.8155C8.20094 23.8499 8.2854 23.887 8.36985 23.9215C8.26428 23.8764 8.16663 23.8182 8.07426 23.7466L8.28804 23.9135C8.20886 23.8473 8.13496 23.7758 8.07162 23.6963L8.23789 23.9109C8.16663 23.8182 8.11121 23.7201 8.0637 23.6141C8.09801 23.6989 8.13496 23.7837 8.16927 23.8685C8.12968 23.7705 8.10329 23.6671 8.08481 23.5638C8.09801 23.6565 8.11121 23.7519 8.12176 23.8447C8.07953 23.524 8.10857 23.1849 8.10857 22.8616V21.7276C8.10857 21.4441 8.1244 21.1632 8.16135 20.8823C8.14815 20.9751 8.13496 21.0705 8.1244 21.1632C8.1983 20.62 8.34082 20.0874 8.5546 19.5813C8.52029 19.6661 8.48334 19.7509 8.44903 19.8357C8.65489 19.3535 8.91882 18.9004 9.23817 18.4844L9.0719 18.699C9.39125 18.2883 9.75811 17.9174 10.1698 17.5968L9.95605 17.7637C10.3704 17.4431 10.8217 17.1781 11.3021 16.9714C11.2176 17.0059 11.1332 17.043 11.0487 17.0774C11.5528 16.8654 12.0807 16.7197 12.6243 16.6455C12.532 16.6588 12.437 16.672 12.3446 16.6826C12.7352 16.6323 13.1232 16.6296 13.5164 16.6296H18.3463C18.7818 16.6296 19.2146 16.627 19.6501 16.6826C19.5577 16.6694 19.4627 16.6561 19.3703 16.6455C19.9114 16.7197 20.4418 16.8628 20.9459 17.0774C20.8615 17.043 20.777 17.0059 20.6926 16.9714C21.1729 17.1781 21.6242 17.4431 22.0386 17.7637L21.8248 17.5968C22.2339 17.9174 22.6034 18.2857 22.9228 18.699L22.7565 18.4844C23.0758 18.9004 23.3398 19.3535 23.5456 19.8357C23.5113 19.7509 23.4744 19.6661 23.4401 19.5813C23.6512 20.0874 23.7964 20.6174 23.8703 21.1632C23.8571 21.0705 23.8439 20.9751 23.8333 20.8823C23.8834 21.2824 23.8861 21.6799 23.8861 22.0826V23.3942C23.8861 23.5452 23.8914 23.6963 23.8729 23.8447C23.8861 23.7519 23.8993 23.6565 23.9098 23.5638C23.894 23.6698 23.865 23.7705 23.8254 23.8685C23.8597 23.7837 23.8966 23.6989 23.931 23.6141C23.8861 23.7201 23.828 23.8182 23.7568 23.9109L23.923 23.6963C23.8571 23.7758 23.7858 23.8499 23.7066 23.9135L23.9204 23.7466C23.828 23.8182 23.7304 23.8738 23.6248 23.9215C23.7093 23.887 23.7937 23.8499 23.8782 23.8155C23.7805 23.8552 23.6776 23.8817 23.5747 23.9003C23.667 23.887 23.762 23.8738 23.8544 23.8632C23.7964 23.8711 23.7357 23.8738 23.6749 23.8764C23.4031 23.8791 23.1233 23.993 22.928 24.1865C22.7459 24.3693 22.606 24.6713 22.6192 24.9363C22.6456 25.5033 23.0838 26.0041 23.6749 25.9962C24.7016 25.9803 25.6042 25.3073 25.9051 24.3189C26.0239 23.9268 25.9975 23.5055 25.9975 23.1027C25.9975 22.1807 26.0265 21.2665 25.8682 20.3524C25.6359 19.0143 24.9655 17.7557 24.0471 16.7674C23.1286 15.7791 21.8934 15.0531 20.587 14.7298C19.8375 14.5443 19.0826 14.5152 18.3172 14.5152H13.6352C12.8513 14.5152 12.0727 14.5523 11.31 14.7563C10.0141 15.1008 8.79477 15.8347 7.89479 16.831C6.98688 17.8352 6.3297 19.0965 6.11592 20.4425C5.9734 21.346 6.00243 22.2522 6.00243 23.1637C6.00243 23.5823 5.97868 24.0195 6.12912 24.4196C6.32442 24.9337 6.63586 25.3391 7.09245 25.6438C7.44875 25.8796 7.90006 25.9935 8.32235 25.9988C8.52821 26.0015 8.73407 25.9988 8.93993 25.9988H23.6776C24.2292 25.9988 24.7597 25.5113 24.7333 24.939C24.7069 24.3613 24.2688 23.8764 23.6749 23.8764Z" fill="#FF0037"/>
</svg>
